PathFileType	4	(X/Y/Z)	/Users/niels/Desktop/University/Third Semester/Perception and Action/Exam/Gymnastics Motion Tracking/Code for Gym Tracking/Analyzed Data/Webcam_Backflip/id7_4_baseline_Sports2D/id7_4_baseline_Sports2D_px_person00.trc
DataRate	CameraRate	NumFrames	NumMarkers	Units	OrigDataRate	OrigDataStartFrame	OrigNumFrames
29.810126582278482	29.810126582278482	10	22	m	29.810126582278482	39	158
Frame#	Time	Hip			RHip			RKnee			RAnkle			RBigToe			RSmallToe			RHeel			LHip			LKnee			LAnkle			LBigToe			LSmallToe			LHeel			Neck			Head			Nose			RShoulder			RElbow			RWrist			LShoulder			LElbow			LWrist		
		X1	Y1	Z1	X2	Y2	Z2	X3	Y3	Z3	X4	Y4	Z4	X5	Y5	Z5	X6	Y6	Z6	X7	Y7	Z7	X8	Y8	Z8	X9	Y9	Z9	X10	Y10	Z10	X11	Y11	Z11	X12	Y12	Z12	X13	Y13	Z13	X14	Y14	Z14	X15	Y15	Z15	X16	Y16	Z16	X17	Y17	Z17	X18	Y18	Z18	X19	Y19	Z19	X20	Y20	Z20	X21	Y21	Z21	X22	Y22	Z22
39	1.30828025477707	0.9139209924057924	-0.4945829770454772	0.0	0.9125261307506131	-0.4948066464654438	0.0	0.9194991967433321	-0.6128974365146928	0.0	0.8829833922875989	-0.7125311486476947	0.0	0.9131366808172466	-0.7455646244055941	0.0	0.906922867433022	-0.7476597619275209	0.0	0.870194054396592	-0.7252779992917976	0.0	0.9151768710011264	-0.49570387686061235	0.0	0.9183868453919334	-0.611504289588989	0.0	0.8853775049908502	-0.7093774319225413	0.0	0.9159144336430345	-0.7401474792284288	0.0	0.9105490222045252	-0.7377623089632902	0.0	0.8695572596136476	-0.7226013679341899	0.0	1.0417590169898951	-0.4481619930430086	0.0	1.1129127861082968	-0.4551607198609567	0.0	1.075720527952967	-0.467089859121284	0.0	1.0378812280953322	-0.44746452784738777	0.0	1.0589908893672237	-0.4867073702735649	0.0	1.0940523620622136	-0.5222816749698773	0.0	1.0278482980110817	-0.43458735255673964	0.0	1.0111806124970943	-0.4363722970306204	0.0	1.0223419504125038	-0.47081977265089975	0.0
40	1.3418259023354564	0.9125356804998387	-0.5391679153148592	0.0	0.9127863880099665	-0.5398481873870246	0.0	0.9263640902072766	-0.6563894714019789	0.0	0.9034397112405641	-0.7641087907152616	0.0	0.9365394436923434	-0.7890705350246074	0.0	0.9310382494999764	-0.7938546269277941	0.0	0.8919717378703584	-0.7787181980695138	0.0	0.9119843256210216	-0.5390244275186573	0.0	0.922176989593274	-0.6543395286823104	0.0	0.9021931516282686	-0.7588216741231805	0.0	0.9365581600197112	-0.7807642963600419	0.0	0.9288300846567613	-0.779186516595913	0.0	0.889392320196929	-0.7738631760524993	0.0	1.031344801407584	-0.46565582650081006	0.0	1.1026683825108765	-0.46178224676179136	0.0	1.0678283836472493	-0.478208255643302	0.0	1.0287119078502398	-0.4673713862444308	0.0	1.067119569030205	-0.500395610514068	0.0	1.1145185398482291	-0.5223144982831707	0.0	1.015665971296505	-0.4533190425112028	0.0	1.014877025164326	-0.44409498307862866	0.0	1.0296324442340639	-0.4644792187428383	0.0
41	1.3753715498938428	0.9121571739476683	-0.5815613628423276	0.0	0.9137858958387363	-0.5827135520329203	0.0	0.9348383940077202	-0.696879626216885	0.0	0.9181573607450293	-0.8057881696673324	0.0	0.9530096300940751	-0.8246456500864617	0.0	0.947503798644718	-0.8314711993971072	0.0	0.9070309041745056	-0.8198908385762667	0.0	0.9099391092885393	-0.5805919179235507	0.0	0.926919650015706	-0.6944523045181585	0.0	0.9133819827657894	-0.7990280923172943	0.0	0.9495414619305174	-0.8133997465282876	0.0	0.9397999716856354	-0.8124917266045388	0.0	0.9028857268488173	-0.8136353579966672	0.0	1.0198077674317723	-0.4860419373307754	0.0	1.0891680528471264	-0.4715264524022911	0.0	1.0582094797065114	-0.4921602066900985	0.0	1.0179395534534341	-0.4900951324700791	0.0	1.0696404778141202	-0.5138070691116622	0.0	1.1248382539145403	-0.5190739666641936	0.0	1.0029596728796346	-0.4758690821112558	0.0	1.0171214777059219	-0.45637928498096647	0.0	1.0352016582452	-0.45809404630970607	0.0
42	1.4089171974522292	0.9121617676983841	-0.6178442226749616	0.0	0.9148329274543125	-0.6193979979062794	0.0	0.9439120957479563	-0.7307894305475866	0.0	0.9267751208082953	-0.8365173763345759	0.0	0.9635411745789213	-0.8516692346211294	0.0	0.9571511472724062	-0.8596747898958428	0.0	0.9149447922169112	-0.8485530828974831	0.0	0.9085470059414892	-0.6165551161038557	0.0	0.9319104889328698	-0.7282979316294053	0.0	0.918907712485379	-0.8290169004630371	0.0	0.9560149456097973	-0.8380403341794479	0.0	0.9447141721357492	-0.8373363953125083	0.0	0.9095145095657524	-0.8418420176512134	0.0	1.0084038479971307	-0.5064567155834752	0.0	1.0742583009453186	-0.48218161686867583	0.0	1.0482848355095404	-0.5064846607596231	0.0	1.0068849707336538	-0.5125495888451712	0.0	1.0671656437387844	-0.5264500364649185	0.0	1.1255655081482356	-0.5149666360627287	0.0	0.9909194384695189	-0.4990874969875416	0.0	1.0153619785490222	-0.4739160842422027	0.0	1.0365959145720065	-0.45863262034633173	0.0
43	1.4424628450106156	0.9119753369776652	-0.6443309635296006	0.0	0.9152524914340225	-0.6461295670546356	0.0	0.9523144747533546	-0.7547480656071599	0.0	0.9303591266973802	-0.8556463500203254	0.0	0.9693224353662419	-0.8691213276301812	0.0	0.9616132332309422	-0.8773108270428854	0.0	0.9172594258088966	-0.8652946774494961	0.0	0.9073745924408462	-0.6431062312757189	0.0	0.936761400274087	-0.7523966977609695	0.0	0.9204518885843574	-0.8480794610064673	0.0	0.9582340244573309	-0.8541916980775337	0.0	0.9458055409294517	-0.8531678726151175	0.0	0.9110038420278781	-0.8589879661046868	0.0	0.9982997450974683	-0.5233774036239636	0.0	1.0600024897249722	-0.490781969820851	0.0	1.0393635858560595	-0.518021950377709	0.0	0.9968664997485566	-0.5310593738660989	0.0	1.0613219993946044	-0.5370504043832047	0.0	1.119580636552254	-0.5117960257946926	0.0	0.9806515506749651	-0.5188750372643366	0.0	1.0098250421319437	-0.4944524772774409	0.0	1.0344410368065282	-0.4688080391785442	0.0
44	1.476008492569002	0.9112987532237347	-0.6585917185973421	0.0	0.9146478501327253	-0.6603653501034672	0.0	0.9589790511491174	-0.7664271939897997	0.0	0.9304986185443324	-0.8632312273090996	0.0	0.9712483168820172	-0.876285596443598	0.0	0.9624660858570351	-0.8837712887318573	0.0	0.916183414166204	-0.871273902099957	0.0	0.9062925831263032	-0.6575572735019436	0.0	0.9415385177606611	-0.7642647973662208	0.0	0.9202440058834576	-0.8560148204333112	0.0	0.9586812790381087	-0.8614112512549744	0.0	0.945556677039389	-0.8598287589514141	0.0	0.9098289903292287	-0.8658152606133659	0.0	0.9903177277342924	-0.5334047151342652	0.0	1.0482291419917613	-0.49430388048621093	0.0	1.032359251811747	-0.5237538769307477	0.0	0.988844419729414	-0.54216283254039	0.0	1.0541068581955113	-0.5437509604280103	0.0	1.1109364045727514	-0.5099018360488468	0.0	0.9729203030309435	-0.531218424279367	0.0	1.001948412363228	-0.5134649523329833	0.0	1.0300760669386833	-0.4853916429361561	0.0
45	1.5095541401273884	0.9101857465253979	-0.6600439942886365	0.0	0.9130708760041049	-0.6614552200128044	0.0	0.963411198359025	-0.7652620500442432	0.0	0.9288032420712782	-0.8601613839710291	0.0	0.9704413914828433	-0.8733342823018524	0.0	0.9611791291015036	-0.8796569386898881	0.0	0.9137120007887308	-0.8678715341259646	0.0	0.9053980911478192	-0.659109097704287	0.0	0.9462348348022628	-0.7632380593464971	0.0	0.9199291993777649	-0.8532808615289046	0.0	0.9591767807458715	-0.859693643748436	0.0	0.9459513787518702	-0.8576819372912514	0.0	0.9079513594663666	-0.8630985263258966	0.0	0.9848015897075905	-0.5342326958610909	0.0	1.0399326693824609	-0.4905527234090424	0.0	1.0275403890791555	-0.521573865025935	0.0	0.9832496235285556	-0.5435165992070826	0.0	1.0471474694841287	-0.5445939813964848	0.0	1.1031319571863563	-0.5079152809579637	0.0	0.967948664329108	-0.5334936620689595	0.0	0.9927514986215309	-0.5261745282973124	0.0	1.0240817335360013	-0.5020554807897428	0.0
46	1.5430997876857748	0.9089435499644573	-0.6499224472658491	0.0	0.9109848700029234	-0.6506966453874736	0.0	0.9657281887396402	-0.7526353946913481	0.0	0.9266683261593621	-0.8480388921107529	0.0	0.9683436788301715	-0.8615326495323443	0.0	0.9591108350362472	-0.8667257046605079	0.0	0.9112808693573983	-0.8565199973423052	0.0	0.904812653320282	-0.6489377151301194	0.0	0.9503849162137677	-0.7507220637391352	0.0	0.9201291832442253	-0.8411414546512123	0.0	0.9602962444780514	-0.8497716843395168	0.0	0.947788235690405	-0.8475843313821436	0.0	0.9063929692585017	-0.8518414163308247	0.0	0.9815902977985896	-0.5252910440770282	0.0	1.0349951646386009	-0.4787378908391715	0.0	1.024602641645085	-0.5107549104441659	0.0	0.9799586086213056	-0.5345453340524272	0.0	1.0414240596140043	-0.5381912692248536	0.0	1.0979442564616562	-0.503372508950093	0.0	0.96540983206067	-0.5252405354894065	0.0	0.983458316042529	-0.5293797123791845	0.0	1.01758717682959	-0.5124739564313671	0.0
47	1.5766454352441612	0.9079861223384846	-0.6307929623493775	0.0	0.9090862143932971	-0.6308438602226303	0.0	0.9662814924602711	-0.7314831706159239	0.0	0.9250236038421449	-0.8291643240664482	0.0	0.9661189531781952	-0.8433571072380209	0.0	0.9572022174148915	-0.8476902347621367	0.0	0.9096232953906138	-0.8390275053888516	0.0	0.904617829062958	-0.6297005069958101	0.0	0.9532634103273708	-0.7297528970275997	0.0	0.9207183785208684	-0.8218264357355597	0.0	0.9615106848953922	-0.8335060896598627	0.0	0.9505435631962018	-0.8312260203297158	0.0	0.9054301071982392	-0.8337322524367234	0.0	0.9800855111907615	-0.5076966238866882	0.0	1.032455945862641	-0.4595199878762962	0.0	1.0229279580148534	-0.4920607913217342	0.0	0.978405053632254	-0.5164376219553282	0.0	1.0373801515873244	-0.5241940823605983	0.0	1.0954063166379162	-0.4937597135225791	0.0	0.9645869662080095	-0.5079365853126819	0.0	0.9769460507900473	-0.5220404340334197	0.0	1.013927944604531	-0.5117514140394851	0.0
48	1.6101910828025479	0.9076758479755729	-0.6058358454259538	0.0	0.9080165340954939	-0.6052903023181603	0.0	0.9653188938897109	-0.7054733509049018	0.0	0.924220672637761	-0.8064402015739021	0.0	0.9642075705460912	-0.8222058687293659	0.0	0.9557274506357827	-0.8259001582851846	0.0	0.9088649435015148	-0.8178025045782007	0.0	0.9048800116109943	-0.6047228346604057	0.0	0.9543518508423794	-0.7040382197224101	0.0	0.9213069833287557	-0.798320401459969	0.0	0.9619094350080665	-0.8137147943705412	0.0	0.9529616283169535	-0.8111867892949132	0.0	0.9049699142219205	-0.8112354440827575	0.0	0.979437285573028	-0.48370738419320014	0.0	1.0310594691805959	-0.4346186724229439	0.0	1.0217938966183693	-0.4673831156416056	0.0	0.9778192449861017	-0.4915923613287802	0.0	1.0350573921367707	-0.503283319174551	0.0	1.0945436129124237	-0.47745841792575744	0.0	0.9645913014182418	-0.4841603628101597	0.0	0.9759172005808212	-0.5050958305363665	0.0	1.0161335384704295	-0.49785254995180056	0.0
